# xmcd CD database file
#
# Track frame offsets:
#	182
#	13195
#	24620
#	33530
#	43167
#	52972
#	66320
#	80165
#	91922
#	102422
#	115980
#	125992
#	140205
#	151500
#	168432
#	174175
#	186485
#	194600
#	208920
#	223995
#	237247
#	252155
#	263380
#	278640
#	284272
#	297892
#	311382
#	323367
#	335210
#
# Disc length: 4575 seconds
#
# Revision: 0
# Processed by: cddbd v1.4PL0 Copyright (c) Steve Scherf et al.
# Submitted via: CDex 1.50
#
DISCID=bd11dd1d
DTITLE=Memphis Slim - Memphis Slim - Michel Denis, Drums - Recorded live at the Caveau de la Huchette, Paris 1977
DYEAR=1996
DGENRE=Jazz
TTITLE0=Rockin' The House
TTITLE1=Mistery
TTITLE2=Mean Old Frisco
TTITLE3=Baby Please Come Home
TTITLE4=What is The Blues
TTITLE5=Didn't We Baby
TTITLE6=The Animal In Me
TTITLE7=Boogie Woogie
TTITLE8=Big Fat Mama
TTITLE9=Too Late Now
TTITLE10=I'm Lost Without You
TTITLE11=May Be Wrong
TTITLE12=Little Lonely Girl
TTITLE13=New York Getaway
TTITLE14=All By Myself
TTITLE15=Christina
TTITLE16=You Won't Let me Go
TTITLE17=Every Day
TTITLE18=The Come Back
TTITLE19=Wish Me Well
TTITLE20=Headed For Nashville
TTITLE21=Rack'em Back Jack
TTITLE22=Yackety Yack
TTITLE23=Three And One Boogie
TTITLE24=Shake, Rattle And Roll
TTITLE25=Something In Your Mind
TTITLE26=My Babe
TTITLE27=Next Time You See Me
TTITLE28=Bye Bye Blues
EXTD=YEAR: 1996
EXTT0=
EXTT1=
EXTT2=
EXTT3=
EXTT4=
EXTT5=
EXTT6=
EXTT7=
EXTT8=
EXTT9=
EXTT10=
EXTT11=
EXTT12=
EXTT13=
EXTT14=
EXTT15=
EXTT16=
EXTT17=
EXTT18=
EXTT19=
EXTT20=
EXTT21=
EXTT22=
EXTT23=
EXTT24=
EXTT25=
EXTT26=
EXTT27=
EXTT28=
PLAYORDER=
